HIERARCHY
ROOT Pelvis
{
	OFFSET 0.000000 0.000000 0.000000
	CHANNELS 6 Xposition Yposition Zposition Xrotation Yrotation Zrotation
	JOINT LeftUpLeg_virtual
	{
		OFFSET 0.000000 0.000000 0.000000
		CHANNELS 3 Xrotation Yrotation Zrotation
		JOINT LeftUpLeg
		{
			OFFSET 8.479700 -4.795502 -0.379100
			CHANNELS 3 Xrotation Yrotation Zrotation
			JOINT LeftLeg
			{
				OFFSET 0.024144 -32.555107 0.112900
				CHANNELS 3 Xrotation Yrotation Zrotation
				JOINT LeftFoot
				{
					OFFSET -0.024144 -32.638630 -3.012600
					CHANNELS 3 Xrotation Yrotation Zrotation
					JOINT LeftToeBase
					{
						OFFSET 0.970200 -13.225400 11.864200
						CHANNELS 3 Xrotation Yrotation Zrotation
						End Site
						{
							OFFSET 0 0 0
						}
					}
				}
			}
		}
	}
	JOINT RightUpLeg_virtual
	{
		OFFSET 0.000000 0.000000 0.000000
		CHANNELS 3 Xrotation Yrotation Zrotation
		JOINT RightUpLeg
		{
			OFFSET -8.479700 -4.795502 -0.379100
			CHANNELS 3 Xrotation Yrotation Zrotation
			JOINT RightLeg
			{
				OFFSET -0.023144 -32.555092 0.112900
				CHANNELS 3 Xrotation Yrotation Zrotation
				JOINT RightFoot
				{
					OFFSET 0.023144 -32.638641 -3.012700
					CHANNELS 3 Xrotation Yrotation Zrotation
					JOINT RightToeBase
					{
						OFFSET -0.970200 -13.225400 11.864200
						CHANNELS 3 Xrotation Yrotation Zrotation
						End Site
						{
							OFFSET 0 0 0
						}
					}
				}
			}
		}
	}
	JOINT Hips_virtual
	{
		OFFSET 0.000000 0.000000 0.000000
		CHANNELS 3 Xrotation Yrotation Zrotation
		JOINT Hips
		{
			OFFSET -0.000000 -0.000000 -0.000000
			CHANNELS 3 Xrotation Yrotation Zrotation
			JOINT Spine
			{
				OFFSET 0.000000 7.722000 1.166200
				CHANNELS 3 Xrotation Yrotation Zrotation
				JOINT Spine1
				{
					OFFSET 0.000000 12.024101 0.248800
					CHANNELS 3 Xrotation Yrotation Zrotation
					JOINT Spine2
					{
						OFFSET 0.000000 11.502998 -0.491200
						CHANNELS 3 Xrotation Yrotation Zrotation
						JOINT Neck_virtual
						{
							OFFSET 0.000000 0.000000 0.000000
							CHANNELS 3 Xrotation Yrotation Zrotation
							JOINT Neck
							{
								OFFSET 0.000000 18.430702 -3.123100
								CHANNELS 3 Xrotation Yrotation Zrotation
								JOINT Head
								{
									OFFSET 0.000000 9.051102 1.034000
									CHANNELS 3 Xrotation Yrotation Zrotation
									End Site
									{
										OFFSET 0 0 0
									}
								}
							}
						}
						JOINT LeftShoulder_virtual
						{
							OFFSET 0.000000 0.000000 0.000000
							CHANNELS 3 Xrotation Yrotation Zrotation
							JOINT LeftShoulder
							{
								OFFSET 6.197800 13.665199 -4.064700
								CHANNELS 3 Xrotation Yrotation Zrotation
								JOINT LeftArm
								{
									OFFSET 7.778100 -0.187103 -1.709300
									CHANNELS 3 Xrotation Yrotation Zrotation
									JOINT LeftForeArm
									{
										OFFSET 22.049376 0.000000 0.000000
										CHANNELS 3 Xrotation Yrotation Zrotation
										JOINT LeftHand
										{
											OFFSET 23.009392 0.000000 0.000000
											CHANNELS 3 Xrotation Yrotation Zrotation
											End Site
											{
												OFFSET 0 0 0
											}
										}
									}
								}
							}
						}
						JOINT RightShoulder_virtual
						{
							OFFSET 0.000000 0.000000 0.000000
							CHANNELS 3 Xrotation Yrotation Zrotation
							JOINT RightShoulder
							{
								OFFSET -6.197800 13.665199 -4.064700
								CHANNELS 3 Xrotation Yrotation Zrotation
								JOINT RightArm
								{
									OFFSET -7.778100 -0.187103 -1.709300
									CHANNELS 3 Xrotation Yrotation Zrotation
									JOINT RightForeArm
									{
										OFFSET -22.049376 0.000000 0.000000
										CHANNELS 3 Xrotation Yrotation Zrotation
										JOINT RightHand
										{
											OFFSET -23.009392 0.000000 0.000000
											CHANNELS 3 Xrotation Yrotation Zrotation
											End Site
											{
												OFFSET 0 0 0
											}
										}
									}
								}
							}
						}
					}
				}
			}
		}
	}
}
MOTION
Frames: 6
Frame Time: 0.03333333
0.829090 74.989304 -0.424576 0.000000 0.000000 0.000000 9.545352 -61.619344 10.152426 -36.690605 11.888580 23.486056 36.108007 -6.745320 1.195824 -5.486797 -2.268785 -16.038852 0.000000 0.000000 0.000000 9.545352 -61.619344 10.152426 -31.263770 -19.564167 -32.362819 35.165673 3.482097 -4.082690 -11.011009 0.859196 22.483869 0.000000 0.000000 0.000000 9.545352 -61.619344 10.152426 -0.000001 0.000000 0.000000 15.063718 -0.324094 -4.291271 5.872399 0.563938 -2.798213 0.000000 0.000000 0.000000 5.868719 0.648184 -2.860167 -3.632889 1.437159 3.747493 0.000000 0.000000 0.000000 5.868719 0.648184 -2.860167 1.828094 -3.192673 -12.271577 -39.387396 26.350487 -34.911105 0.429359 -46.808448 0.416179 0.000000 0.000000 0.000000 5.868719 0.648184 -2.860167 0.632600 7.257364 8.700386 7.936000 -9.680156 53.429899 -22.867424 36.194689 17.955440 0.000000 0.000000 0.000000 
1.037554 74.743446 -1.212353 0.000000 0.000000 0.000000 9.955861 -55.373092 8.114950 -40.833774 8.235689 23.556904 36.366789 -7.985770 1.380675 -3.756452 -4.977911 -15.688548 0.000000 0.000000 0.000000 9.955861 -55.373092 8.114950 -31.123553 -19.575894 -31.244622 39.540648 -0.161111 -2.208738 -12.322091 0.288582 21.466318 0.000000 0.000000 0.000000 9.955861 -55.373092 8.114950 0.000000 0.000002 0.000000 18.427099 -0.459426 -3.531320 7.295527 -0.352583 -0.796545 0.000000 0.000000 0.000000 7.297487 -0.185256 -0.836841 -9.419008 1.041056 2.964137 0.000000 0.000000 0.000000 7.297487 -0.185256 -0.836841 3.590635 -8.212473 -8.338661 -17.336424 15.897258 -30.473746 -15.109932 -56.231984 -14.869756 0.000000 0.000000 0.000000 7.297487 -0.185256 -0.836841 2.195472 10.570688 6.739747 12.334686 -2.089136 49.300613 -23.008783 37.026804 18.727889 0.000000 0.000000 0.000000 
0.582181 74.430923 -1.594578 0.000000 0.000000 0.000000 8.519886 -43.366982 5.922805 -44.439991 4.907638 19.515140 35.249121 -13.362668 0.950739 -0.889919 -7.309370 -13.943973 0.000000 0.000000 0.000000 8.519886 -43.366982 5.922805 -27.149356 -21.613613 -32.536672 41.717962 -6.301157 0.386653 -12.951150 -0.776813 24.871461 0.000000 0.000000 0.000000 8.519886 -43.366982 5.922805 0.000000 0.000003 0.000000 19.043305 -0.370352 -1.664753 8.434701 -1.248263 0.996151 0.000000 0.000000 0.000000 8.432944 -1.053503 0.978037 -4.999492 -0.762671 5.645551 0.000000 0.000000 0.000000 8.432944 -1.053503 0.978037 3.416892 -8.568159 -4.408958 -14.803028 11.945507 -33.781740 -16.458823 -59.708831 -14.596235 0.000000 0.000000 0.000000 8.432944 -1.053503 0.978037 2.138321 11.266869 6.137827 17.411402 3.777411 45.935939 -16.048071 34.606776 15.226657 0.000000 0.000000 0.000000 
-0.478632 74.382622 -1.528839 0.000000 0.000000 0.000000 5.162548 -29.766207 5.689103 -43.835010 5.735322 12.644523 30.709972 -18.923172 -0.050642 3.350005 -11.915572 -11.940977 0.000000 0.000000 0.000000 5.162548 -29.766207 5.689103 -20.927911 -23.477792 -34.244130 44.233029 -12.485613 1.680373 -13.488497 -1.668454 25.569887 0.000000 0.000000 0.000000 5.162548 -29.766207 5.689103 0.000000 -0.000001 0.000000 17.947015 0.262432 -1.707163 7.663521 -0.055110 1.868094 0.000000 0.000000 0.000000 7.656336 0.145388 1.807648 11.921184 -3.328151 12.513456 0.000000 0.000000 0.000000 7.656336 0.145388 1.807648 1.265621 -7.131528 -5.657125 -23.592594 7.588127 -38.951319 11.776953 -59.937116 11.769759 0.000000 0.000000 0.000000 7.656336 0.145388 1.807648 0.254894 10.476045 11.937805 21.048082 3.074637 42.497751 -10.393991 28.226119 14.523719 0.000000 0.000000 0.000000 
-1.777832 74.791206 -0.983795 0.000000 0.000000 0.000000 -1.109431 -17.744423 4.465646 -37.809229 9.362940 7.914290 24.937282 -26.010259 -1.345082 7.710702 -17.350682 -9.927777 0.000000 0.000000 0.000000 -1.109431 -17.744423 4.465646 -9.715754 -23.470268 -29.961438 46.740122 -20.045126 0.339429 -11.970687 -1.989905 23.909569 0.000000 0.000000 0.000000 -1.109431 -17.744423 4.465646 0.000000 -0.000001 0.000000 16.770765 1.765085 -1.742805 5.284546 2.633934 2.560245 0.000000 0.000000 0.000000 5.269075 2.814638 2.432385 37.491386 -0.604653 24.738083 0.000000 0.000000 0.000000 5.269075 2.814638 2.432385 0.907822 -6.380193 -5.024942 -28.312097 3.762123 -48.592930 23.186815 -54.716519 21.547970 0.000000 0.000000 0.000000 5.269075 2.814638 2.432385 -0.419580 12.460901 21.415906 25.186299 -1.964547 37.765202 1.735760 22.440324 11.670354 0.000000 0.000000 0.000000 
-3.308146 75.697739 0.170580 0.000000 0.000000 0.000000 -6.978372 -5.486385 5.419554 -27.157029 15.993146 2.800820 13.725870 -34.039778 -2.533254 14.092690 -23.938631 -9.495329 0.000000 0.000000 0.000000 -6.978372 -5.486385 5.419554 1.662410 -21.831841 -23.264092 46.961188 -23.870193 -1.998119 -2.445033 -0.475234 20.147038 0.000000 0.000000 0.000000 -6.978372 -5.486385 5.419554 0.000000 0.000000 0.000000 15.331902 3.261611 -0.911797 3.809921 5.021478 3.621708 0.000000 0.000000 0.000000 3.802174 5.167653 3.470755 51.333079 7.143538 31.746248 0.000000 0.000000 0.000000 3.802174 5.167653 3.470755 0.965215 -3.630445 -3.342203 -30.972415 4.074812 -56.746004 18.176291 -53.137236 16.404566 0.000000 0.000000 0.000000 3.802174 5.167653 3.470755 -0.729082 14.047263 27.980867 21.782429 -8.006845 32.815405 37.648590 18.368257 -3.768639 0.000000 0.000000 0.000000 
